HIERARCHY
ROOT Hips
{
  OFFSET 36.3443 98.337 31.0518
  CHANNELS 6 Xposition Yposition Zposition Zrotation Xrotation Yrotation
  JOINT ToSpine
  {
    OFFSET -0.0105055 1.38907 -7.13956
    CHANNELS 3 Zrotation Xrotation Yrotation
    JOINT Spine
    {
      OFFSET 0.0105055 10 1
      CHANNELS 3 Zrotation Xrotation Yrotation
      JOINT Spine1
      {
        OFFSET 0 12 1.60637
        CHANNELS 3 Zrotation Xrotation Yrotation
        JOINT Neck
        {
          OFFSET 0 27 2.26658
          CHANNELS 3 Zrotation Xrotation Yrotation
          JOINT Head
          {
            OFFSET 0 9 2.12705
            CHANNELS 3 Zrotation Xrotation Yrotation
            End Site
            {
              OFFSET 0 11 2
            }
          }
        }
        JOINT LeftShoulder
        {
          OFFSET 8 19.6109 2.86452
          CHANNELS 3 Zrotation Xrotation Yrotation
          JOINT LeftArm
          {
            OFFSET 12 1 0.681055
            CHANNELS 3 Zrotation Xrotation Yrotation
            JOINT LeftForeArm
            {
              OFFSET 19 0 -1.52608
              CHANNELS 3 Zrotation Xrotation Yrotation
              JOINT LeftHand
              {
                OFFSET 23 0 0
                CHANNELS 3 Zrotation Xrotation Yrotation
                End Site
                {
                  OFFSET 10 0 0
                }
              }
            }
          }
        }
        JOINT RightShoulder
        {
          OFFSET -8 19.6109 2.86452
          CHANNELS 3 Zrotation Xrotation Yrotation
          JOINT RightArm
          {
            OFFSET -12 1 0.681055
            CHANNELS 3 Zrotation Xrotation Yrotation
            JOINT RightForeArm
            {
              OFFSET -19 0 -1.52608
              CHANNELS 3 Zrotation Xrotation Yrotation
              JOINT RightHand
              {
                OFFSET -23 0 0
                CHANNELS 3 Zrotation Xrotation Yrotation
                End Site
                {
                  OFFSET -10 0 0
                }
              }
            }
          }
        }
      }
    }
  }
  JOINT LeftUpLeg
  {
    OFFSET 9 -7.17245 0
    CHANNELS 3 Zrotation Xrotation Yrotation
    JOINT LeftLeg
    {
      OFFSET 0 -44.1113 0
      CHANNELS 3 Zrotation Xrotation Yrotation
      JOINT LeftFoot
      {
        OFFSET 0 -36.1829 0
        CHANNELS 3 Zrotation Xrotation Yrotation
        JOINT LeftToeBase
        {
          OFFSET 0 -4.84184 13
          CHANNELS 3 Zrotation Xrotation Yrotation
          End Site
          {
            OFFSET 0 1 6
          }
        }
      }
    }
  }
  JOINT RightUpLeg
  {
    OFFSET -9 -7.17245 0
    CHANNELS 3 Zrotation Xrotation Yrotation
    JOINT RightLeg
    {
      OFFSET 0 -44.0551 0
      CHANNELS 3 Zrotation Xrotation Yrotation
      JOINT RightFoot
      {
        OFFSET 0 -36.1469 0
        CHANNELS 3 Zrotation Xrotation Yrotation
        JOINT RightToeBase
        {
          OFFSET 0 -4.92256 13
          CHANNELS 3 Zrotation Xrotation Yrotation
          End Site
          {
            OFFSET 0 1 6
          }
        }
      }
    }
  }
}
MOTION
Frames:	15
Frame Time:	0.0333333
34.5639 98.2112 32.2725 2.79058 -2.28388 -2.64351 0 0 0 1.39817 1.1663 0.821701 -5.84682 10.027 1.75611 -9.22192 -11.3011 7.8845 -11.9914 -4.94272 7.9198 -28.6659 2.60425 -3.98176 -58.7941 6.30863 37.5899 -2.43522 -6.95908 -9.64513 -15.526 -0.0800101 0.582906 23.2973 4.61739 12.0201 65.4082 -1.59046 -33.196 2.91397 -4.35405 7.01623 8.95231 0.186182 2.37041 0.743916 0.620006 8.26461 -1.28604 15.7042 -7.71069 2.26783 -14.9959 0.29858 0.751233 2.68152 -3.54011 -3.13489 3.9052 -8.02939 2.17615 5.84961 -4.10991 -21.2668 -9.03688 -1.69973 3.42573 -12.6943 -1.60703 
34.6 98.2203 32.0607 2.83904 -1.7169 -2.7197 0 0 0 1.61614 1.46502 0.849991 -6.08375 9.53057 1.86786 -10.0349 -12.5769 8.10348 -11.9165 -4.48093 8.08275 -29.6351 2.74441 -4.17335 -57.6343 9.90013 33.726 -2.67389 -7.02531 -8.60568 -14.5033 -0.013082 0.104028 23.356 4.74743 12.4223 64.1552 0.157966 -30.7617 3.02822 -3.76828 7.21348 7.82239 0.129269 1.89149 0.651074 -0.209892 8.09555 -1.23738 15.8285 -7.43988 2.16259 -14.8592 0.281921 0.823423 2.54669 -3.80071 -3.16046 3.15544 -7.86389 2.16188 5.71551 -4.05228 -21.3172 -8.43788 -1.591 3.60669 -13.3889 -1.88093 
34.6426 98.2431 31.8649 2.90073 -1.18032 -2.70458 0 0 0 1.834 1.52544 0.963902 -6.37231 9.09596 2.07821 -10.354 -13.3593 8.23757 -11.6967 -4.11138 8.19803 -30.7691 2.98199 -4.58326 -55.316 14.0633 29.1431 -3.22386 -8.84709 -8.23334 -13.503 0.0325461 -0.276289 23.9949 4.90316 12.613 61.7655 2.27231 -27.1792 3.23005 -3.80088 6.70993 6.78964 0.110958 1.8818 0.592948 -0.960527 7.95351 -1.2255 15.8779 -7.21474 1.74427 -14.9088 0.228022 0.77118 3.30462 -3.69876 -3.19974 2.52205 -7.7949 2.18709 5.51679 -3.93932 -21.1798 -8.19879 -1.53492 3.54465 -13.1329 -2.32885 
34.7164 98.2565 31.635 2.89224 -1.2244 -2.8735 0 0 0 2.52274 2.51246 1.13217 -7.28663 7.94593 2.47156 -10.1237 -12.5973 8.22681 -11.8905 -4.64749 8.16657 -31.8821 3.27433 -5.11581 -51.5604 18.944 22.0016 -4.27925 -10.5838 -5.23991 -12.5271 0.0891454 -0.80886 24.9535 5.24639 13.2214 58.9807 4.99911 -22.716 3.76619 -4.42475 5.57568 5.58954 0.108228 2.21052 0.661823 -1.07746 8.1387 -1.48265 15.9372 -7.18205 2.19843 -14.6285 0.282318 0.794748 2.87001 -3.73267 -3.33099 2.36678 -8.00826 2.36706 5.54433 -3.64181 -21.6768 -7.88966 -1.51286 3.63415 -13.4886 -2.16011 
34.7372 98.2693 31.6236 2.63677 -1.36252 -3.21521 0 0 0 3.29588 2.10847 1.30918 -8.13923 8.45813 2.85495 -9.41229 -11.9333 8.2992 -12.2836 -4.77815 8.38798 -33.4122 3.56284 -5.50982 -46.2971 24.5658 13.4439 -5.60854 -12.8779 -2.72359 -10.4426 0.0630801 -0.683109 26.6466 5.8412 14.1882 54.6896 8.05364 -17.2119 4.25671 -5.01815 4.76671 4.4141 0.0670151 1.7302 0.911783 -0.850298 8.35042 -1.47002 15.8805 -7.10139 1.9749 -14.7335 0.255422 0.820891 3.20756 -3.87379 -3.04893 2.51814 -7.70007 2.20044 5.47518 -3.46686 -21.2764 -7.95903 -1.49739 3.49027 -12.9244 -2.13387 
34.7966 98.2581 31.3861 2.693 -1.49756 -3.26177 0 0 0 2.86116 2.17099 1.41341 -7.56925 8.22947 2.80578 -9.2656 -10.4938 8.54697 -12.276 -4.97353 8.55028 -35.6927 3.84493 -5.68265 -38.1926 32.6894 2.67523 -8.14586 -16.1769 -0.313336 -9.01457 0.0581656 -0.728896 27.7488 6.39677 15.2377 49.5487 10.5138 -11.0279 4.59596 -5.6769 4.05053 3.96389 0.026643 0.80053 0.802133 -0.964217 8.30318 -1.4559 16.0752 -7.02466 2.0594 -14.6908 0.264666 0.82775 3.15908 -3.89431 -3.18831 2.5133 -7.81477 2.32375 5.39218 -3.16028 -21.2741 -7.56638 -1.42304 3.58003 -13.2689 -2.52675 
34.9667 98.3135 31.2238 3.07444 -1.62983 -3.09736 0 0 0 2.83153 1.40522 1.42324 -8.03653 8.79603 2.97366 -7.92909 -8.43178 8.5402 -12.9082 -5.41589 8.79193 -36.4561 4.12922 -6.17913 -28.9362 34.1937 -10.8022 -10.0713 -14.689 3.38859 -9.4172 0.133095 -1.62048 28.8855 6.93704 16.17 44.2512 12.6827 -3.99738 4.92606 -5.50085 3.55755 3.38791 0.0494128 1.64336 0.0336772 -0.631718 7.66298 -1.25717 15.1851 -6.53819 2.46869 -13.9045 0.301357 0.802955 2.65417 -3.73559 -3.7652 2.55061 -8.39756 2.4465 5.3949 -2.85318 -21.547 -7.46306 -1.42198 3.61149 -13.3964 -2.40276 
34.9291 98.3334 31.0604 3.00146 -1.85465 -2.83129 0 0 0 2.77428 0.591696 1.53596 -8.02365 9.4251 3.07704 -7.09328 -5.92366 8.3692 -13.0229 -5.79318 8.68971 -36.3796 4.38965 -6.80605 -22.3269 31.1201 -23.6314 -11.9417 -10.4209 4.6889 -8.81519 0.138326 -1.79362 29.2744 7.07998 16.3516 38.9551 14.0753 3.93336 5.2447 -6.43113 3.34075 3.39155 0.0715759 2.41186 0.228541 -0.633249 7.76438 -1.28601 15.438 -7.04889 2.11334 -13.9601 0.258711 0.742988 2.76769 -3.52175 -3.63762 2.7668 -8.35104 2.41324 5.35133 -3.13658 -21.6352 -7.37979 -1.41186 3.54802 -13.1436 -2.37123 
34.8944 98.3166 30.959 2.89939 -2.29927 -2.62232 0 0 0 2.21929 -0.166721 1.62815 -7.20927 10.0294 2.93688 -6.98976 -3.25093 8.50242 -12.402 -6.02571 8.60807 -35.8989 4.56729 -7.34518 -17.7577 29.305 -33.3987 -12.1761 -9.75964 4.54176 -8.57354 0.155736 -2.07467 29.1389 7.39795 17.3032 34.3513 13.6685 11.1064 4.89256 -5.02334 4.11011 2.29484 0.0492865 2.49031 0.563086 -0.366191 8.19493 -1.60707 15.7904 -7.55913 2.51904 -13.8977 0.307098 0.737522 2.46556 -3.45993 -3.4362 3.21647 -8.20111 2.23491 5.27872 -3.71525 -21.2469 -7.51514 -1.41155 3.51761 -13.055 -1.47481 
34.9335 98.3312 30.8616 2.83551 -2.45413 -2.46543 0 0 0 2.3467 -0.9999 1.62689 -7.43385 10.4378 2.97147 -6.1067 -1.12021 8.31139 -12.4495 -5.26492 8.67581 -34.7619 4.65666 -7.87596 -16.7737 25.2269 -41.0782 -11.1634 -8.27026 4.60887 -8.3746 0.203547 -2.78912 29.1633 7.61705 17.8932 30.0717 12.7954 17.5659 4.56158 -5.45033 6.23704 1.9204 0.0500636 2.98011 0.6659 -0.37274 8.29916 -1.68145 16.0029 -7.74124 2.47555 -14.025 0.30449 0.808672 2.96571 -3.79668 -3.47915 3.26839 -8.30276 2.36723 5.45565 -3.91349 -21.4461 -7.47986 -1.41795 3.59181 -13.3443 -1.15563 
34.9095 98.3164 30.799 2.7357 -2.67438 -1.94708 0 0 0 2.27564 -1.48164 1.5397 -7.49017 10.4455 2.85278 -4.79311 0.987523 7.76593 -13.1242 -4.43914 8.66479 -32.603 4.71146 -8.64399 -18.6992 21.5056 -46.7992 -9.52391 -7.61136 4.08342 -7.77511 0.237494 -3.49072 29.1277 7.71443 18.1819 27.1224 10.4889 23.219 3.26277 -2.50126 9.22112 2.77232 0.0741439 3.0546 0.932328 -0.438671 8.44516 -1.72781 16.5134 -8.45697 2.58928 -14.1787 0.321943 0.747439 2.86956 -3.55141 -3.29553 3.55285 -8.20782 2.31511 5.44343 -4.3194 -20.7851 -7.71897 -1.41771 3.42915 -12.7059 -1.58717 
34.9285 98.2882 30.8138 2.56354 -2.93829 -1.88354 0 0 0 2.27006 -1.73313 1.6364 -7.41798 10.3046 2.87087 -4.42871 2.70192 7.72971 -12.4231 -3.70576 8.65399 -31.5853 4.67681 -8.88653 -18.5211 19.8708 -52.1084 -8.33916 -9.51969 0.814405 -8.30883 0.280058 -3.84138 28.8513 7.71535 18.349 25.3402 8.04952 28.2078 1.4587 0.638592 12.4287 2.7864 0.0909879 3.75737 1.16738 -0.300289 8.68267 -1.7922 16.8725 -8.68272 3.36588 -14.143 0.417534 0.78869 2.16314 -3.61644 -3.04326 3.86601 -7.99587 2.28003 5.40972 -4.38466 -21.3726 -7.48054 -1.41374 3.55151 -13.1636 -2.24368 
34.9749 98.3073 30.8911 2.71524 -2.72292 -1.72128 0 0 0 1.93509 -2.68445 1.67959 -7.2874 10.4262 2.8886 -3.4948 4.44701 7.31099 -12.3584 -3.29614 8.53717 -29.9442 4.69733 -9.49224 -20.3206 17.9671 -56.1236 -7.15654 -8.75709 -3.61468 -9.47192 0.370624 -4.48263 28.2819 7.6866 18.6116 23.8076 7.18464 31.869 0.222325 0.511277 17.0308 2.30625 0.0947594 4.70831 0.971142 -0.375212 8.50981 -1.77437 16.6058 -8.8131 2.82905 -14.3274 0.355724 0.746408 2.9411 -3.55755 -3.30216 3.702 -8.3105 2.49755 5.44096 -4.49613 -21.8931 -7.43949 -1.44077 3.60081 -13.3615 -1.85506 
35.022 98.2885 30.941 2.80392 -2.75261 -1.61961 0 0 0 1.37698 -2.76895 1.82907 -6.67386 10.0173 2.87011 -2.92446 5.25946 6.90943 -12.0675 -1.93533 8.39158 -29.7527 4.72812 -9.64661 -20.6222 16.9125 -59.9319 -5.77255 -6.07361 -8.58397 -9.02801 0.385041 -4.86468 27.3293 7.44309 18.5067 22.2845 6.38296 35.5746 -0.286606 0.76596 20.2677 1.91183 0.0930214 5.56226 0.807374 -0.336084 8.3998 -1.71105 16.6119 -8.77883 2.92013 -14.2589 0.365243 0.710458 2.76434 -3.39519 -3.38562 3.77407 -8.25616 2.3855 5.36445 -4.52897 -21.8868 -7.16067 -1.3862 3.78132 -14.0647 -2.13811 
35.0993 98.2852 31.0462 2.60451 -2.8347 -1.64201 0 0 0 1.99301 -2.87539 1.87355 -7.34021 9.71135 3.01502 -1.83957 6.36301 6.42136 -11.9802 -1.77397 8.27333 -29.3146 4.69192 -9.70664 -19.968 16.5647 -63.5119 -3.83043 -2.76858 -13.1569 -8.64467 0.328655 -4.34426 26.9302 7.39396 18.6134 23.2179 3.23949 37.8539 -0.200711 0.296822 24.0593 1.57227 0.0789214 5.73486 0.972125 -0.194309 8.54541 -1.71789 16.6869 -8.86818 3.22013 -14.3019 0.403802 0.781452 2.37622 -3.61685 -3.18496 3.96298 -8.12505 2.27219 5.38854 -4.78588 -21.3049 -7.57215 -1.42623 3.60035 -13.3673 -1.75453 
